<mxfile host="app.diagrams.net" modified="2024-07-18T15:25:32.909Z" agent="Mozilla/5.0 (Macintosh; Intel Mac OS X 10_15_7) AppleWebKit/537.36 (KHTML, like Gecko) Chrome/126.0.0.0 Safari/537.36" etag="QNIKIPlL-mu0piTE9uVw" version="24.7.1" type="device">
  <diagram name="Page-1" id="e3a06f82-3646-2815-327d-82caf3d4e204">
    <mxGraphModel dx="1444" dy="876" grid="0" gridSize="10" guides="1" tooltips="1" connect="1" arrows="1" fold="1" page="0" pageScale="1.5" pageWidth="1169" pageHeight="826" background="none" math="0" shadow="1">
      <root>
        <mxCell id="0" style=";html=1;" />
        <mxCell id="1" style=";html=1;" parent="0" />
        <mxCell id="6a7d8f32e03d9370-59" value="服务器" style="whiteSpace=wrap;html=1;fillColor=#4D4D4D;fontSize=14;strokeColor=#001DBC;verticalAlign=top;fontColor=#ffffff;rounded=1;" parent="1" vertex="1">
          <mxGeometry x="790" y="281" width="148" height="679" as="geometry" />
        </mxCell>
        <mxCell id="6a7d8f32e03d9370-57" value="&lt;span style=&quot;text-wrap: nowrap;&quot;&gt;客户端&lt;/span&gt;" style="whiteSpace=wrap;html=1;fillColor=#4D4D4D;fontSize=14;strokeColor=#B20000;verticalAlign=top;fontColor=#ffffff;fillStyle=auto;rounded=1;glass=0;shadow=1;" parent="1" vertex="1">
          <mxGeometry x="330" y="281" width="150" height="679" as="geometry" />
        </mxCell>
        <mxCell id="6a7d8f32e03d9370-12" value="" style="verticalLabelPosition=bottom;aspect=fixed;html=1;verticalAlign=top;strokeColor=none;shape=mxgraph.citrix.xenapp_server;fillColor=#66B2FF;gradientColor=#0066CC;fontSize=14;" parent="1" vertex="1">
          <mxGeometry x="829.7500000000001" y="317" width="76" height="89" as="geometry" />
        </mxCell>
        <mxCell id="pcC2OvUwN1UCfyMrfkFr-3" value="&lt;font style=&quot;font-size: 16px;&quot;&gt;男人&lt;/font&gt;" style="text;html=1;align=center;verticalAlign=middle;resizable=0;points=[];autosize=1;strokeColor=none;fillColor=none;fontStyle=1" vertex="1" parent="1">
          <mxGeometry x="375" y="250" width="60" height="30" as="geometry" />
        </mxCell>
        <mxCell id="pcC2OvUwN1UCfyMrfkFr-4" value="女人" style="text;html=1;align=center;verticalAlign=middle;resizable=0;points=[];autosize=1;strokeColor=none;fillColor=none;fontSize=16;fontStyle=1" vertex="1" parent="1">
          <mxGeometry x="835.5" y="250" width="60" height="30" as="geometry" />
        </mxCell>
        <mxCell id="pcC2OvUwN1UCfyMrfkFr-6" value="" style="verticalLabelPosition=bottom;aspect=fixed;html=1;verticalAlign=top;strokeColor=none;shape=mxgraph.citrix.desktop;fillColor=#66B2FF;gradientColor=#0066CC;fontSize=14;" vertex="1" parent="1">
          <mxGeometry x="364.00000000000006" y="317" width="89" height="98" as="geometry" />
        </mxCell>
        <mxCell id="pcC2OvUwN1UCfyMrfkFr-8" value="" style="verticalLabelPosition=bottom;sketch=0;aspect=fixed;html=1;verticalAlign=top;strokeColor=#6c8ebf;align=center;outlineConnect=0;shape=mxgraph.citrix.cloud;fillColor=#dae8fc;gradientColor=#7ea6e0;" vertex="1" parent="1">
          <mxGeometry x="555.72" y="317" width="168.55" height="110" as="geometry" />
        </mxCell>
        <mxCell id="pcC2OvUwN1UCfyMrfkFr-9" value="" style="shape=doubleArrow;whiteSpace=wrap;html=1;fillColor=#eef202;" vertex="1" parent="1">
          <mxGeometry x="480" y="353" width="309" height="36" as="geometry" />
        </mxCell>
        <mxCell id="pcC2OvUwN1UCfyMrfkFr-10" value="TCP连接" style="text;html=1;align=center;verticalAlign=middle;resizable=0;points=[];autosize=1;strokeColor=none;fillColor=none;" vertex="1" parent="1">
          <mxGeometry x="610" y="330" width="70" height="30" as="geometry" />
        </mxCell>
        <mxCell id="pcC2OvUwN1UCfyMrfkFr-11" value="互联网" style="text;html=1;align=center;verticalAlign=middle;resizable=0;points=[];autosize=1;strokeColor=none;fillColor=none;" vertex="1" parent="1">
          <mxGeometry x="615" y="380" width="60" height="30" as="geometry" />
        </mxCell>
        <mxCell id="pcC2OvUwN1UCfyMrfkFr-12" value="" style="html=1;shadow=0;dashed=0;align=center;verticalAlign=middle;shape=mxgraph.arrows2.uTurnArrow;dy=11;arrowHead=43;dx2=34.25;direction=west;flipV=0;flipH=1;fillColor=#009900;strokeColor=#82b366;" vertex="1" parent="1">
          <mxGeometry x="250" y="425" width="68" height="94" as="geometry" />
        </mxCell>
        <mxCell id="pcC2OvUwN1UCfyMrfkFr-13" value="CLOSED" style="dashed=0;html=1;rounded=1;fillColor=#DFE1E6;strokeColor=#DFE1E6;fontSize=12;align=center;fontStyle=1;strokeWidth=2;fontColor=#42526E;arcSize=0;" vertex="1" parent="1">
          <mxGeometry x="340" y="427" width="130" height="25" as="geometry" />
        </mxCell>
        <mxCell id="pcC2OvUwN1UCfyMrfkFr-16" value="LISTEN" style="dashed=0;html=1;rounded=1;fillColor=#d5e8d4;strokeColor=#82b366;fontSize=12;align=center;fontStyle=1;strokeWidth=2;arcSize=0;gradientColor=#97d077;" vertex="1" parent="1">
          <mxGeometry x="802.75" y="430" width="130" height="25" as="geometry" />
        </mxCell>
        <mxCell id="pcC2OvUwN1UCfyMrfkFr-17" value="手动打开" style="text;html=1;align=center;verticalAlign=middle;resizable=0;points=[];autosize=1;strokeColor=none;fillColor=none;fontSize=18;" vertex="1" parent="1">
          <mxGeometry x="211" y="387" width="100" height="40" as="geometry" />
        </mxCell>
        <mxCell id="pcC2OvUwN1UCfyMrfkFr-19" value="" style="shape=singleArrow;direction=east;whiteSpace=wrap;html=1;rotation=10;fillColor=#b1ddf0;strokeColor=#10739e;sketch=1;curveFitting=1;jiggle=2;shadow=1;" vertex="1" parent="1">
          <mxGeometry x="500.3" y="519.62" width="275.3" height="30" as="geometry" />
        </mxCell>
        <mxCell id="pcC2OvUwN1UCfyMrfkFr-20" value="你长得很漂亮，我们处对象吧" style="text;html=1;align=center;verticalAlign=middle;resizable=0;points=[];autosize=1;strokeColor=none;fillColor=none;fontSize=15;rotation=10;" vertex="1" parent="1">
          <mxGeometry x="504.27000000000004" y="540" width="220" height="30" as="geometry" />
        </mxCell>
        <mxCell id="pcC2OvUwN1UCfyMrfkFr-21" value="SYN=1, seq = x" style="text;html=1;align=center;verticalAlign=middle;resizable=0;points=[];autosize=1;strokeColor=none;fillColor=none;fontSize=16;rotation=10;" vertex="1" parent="1">
          <mxGeometry x="555.72" y="500" width="140" height="30" as="geometry" />
        </mxCell>
        <mxCell id="pcC2OvUwN1UCfyMrfkFr-23" value="SYN=1，ack = y+1,&amp;nbsp; seq = x+ 1" style="text;html=1;align=center;verticalAlign=middle;resizable=0;points=[];autosize=1;strokeColor=none;fillColor=none;fontSize=16;rotation=10;" vertex="1" parent="1">
          <mxGeometry x="500.7200000000001" y="750" width="250" height="30" as="geometry" />
        </mxCell>
        <mxCell id="pcC2OvUwN1UCfyMrfkFr-24" value="" style="shape=singleArrow;direction=east;whiteSpace=wrap;html=1;rotation=-195;fillColor=#b1ddf0;strokeColor=#10739e;sketch=1;curveFitting=1;jiggle=2;shadow=1;" vertex="1" parent="1">
          <mxGeometry x="499.52000000000004" y="640" width="275.3" height="30" as="geometry" />
        </mxCell>
        <mxCell id="pcC2OvUwN1UCfyMrfkFr-25" value="" style="shape=singleArrow;direction=east;whiteSpace=wrap;html=1;rotation=10;fillColor=#b1ddf0;strokeColor=#10739e;sketch=1;curveFitting=1;jiggle=2;shadow=1;" vertex="1" parent="1">
          <mxGeometry x="507.3499999999999" y="780" width="275.3" height="30" as="geometry" />
        </mxCell>
        <mxCell id="pcC2OvUwN1UCfyMrfkFr-26" value="SYN=1, ack = x+1, seq = y" style="text;html=1;align=center;verticalAlign=middle;resizable=0;points=[];autosize=1;strokeColor=none;fillColor=none;fontSize=16;rotation=-15;" vertex="1" parent="1">
          <mxGeometry x="540" y="620" width="210" height="30" as="geometry" />
        </mxCell>
        <mxCell id="pcC2OvUwN1UCfyMrfkFr-27" value="我也很欣赏你，好啊" style="text;html=1;align=center;verticalAlign=middle;resizable=0;points=[];autosize=1;strokeColor=none;fillColor=none;fontSize=16;rotation=-15;" vertex="1" parent="1">
          <mxGeometry x="565.72" y="660" width="170" height="30" as="geometry" />
        </mxCell>
        <mxCell id="pcC2OvUwN1UCfyMrfkFr-30" value="太好了，我们去约会吧" style="text;html=1;align=center;verticalAlign=middle;resizable=0;points=[];autosize=1;strokeColor=none;fillColor=none;fontSize=15;rotation=10;" vertex="1" parent="1">
          <mxGeometry x="525.72" y="800" width="170" height="30" as="geometry" />
        </mxCell>
        <mxCell id="pcC2OvUwN1UCfyMrfkFr-31" value="" style="html=1;shadow=1;dashed=0;align=center;verticalAlign=middle;shape=mxgraph.arrows2.twoWayArrow;dy=0.65;dx=22;gradientColor=default;fillColor=#e7df04;" vertex="1" parent="1">
          <mxGeometry x="485.6" y="883" width="293.4" height="43" as="geometry" />
        </mxCell>
        <mxCell id="pcC2OvUwN1UCfyMrfkFr-32" value="数据开始传输" style="text;html=1;align=center;verticalAlign=middle;resizable=0;points=[];autosize=1;strokeColor=#0e8088;fillColor=#b0e3e6;fontSize=17;sketch=1;curveFitting=1;jiggle=2;" vertex="1" parent="1">
          <mxGeometry x="560.72" y="860" width="130" height="30" as="geometry" />
        </mxCell>
        <mxCell id="pcC2OvUwN1UCfyMrfkFr-33" value="之后开始亲密交往" style="text;html=1;align=center;verticalAlign=middle;resizable=0;points=[];autosize=1;strokeColor=none;fillColor=none;fontSize=16;" vertex="1" parent="1">
          <mxGeometry x="545" y="920" width="150" height="30" as="geometry" />
        </mxCell>
        <mxCell id="pcC2OvUwN1UCfyMrfkFr-36" value="三次握手" style="rounded=1;whiteSpace=wrap;html=1;sketch=1;hachureGap=4;jiggle=2;curveFitting=1;fontFamily=Architects Daughter;fontSource=https%3A%2F%2Ffonts.googleapis.com%2Fcss%3Ffamily%3DArchitects%2BDaughter;fontSize=17;" vertex="1" parent="1">
          <mxGeometry x="575" y="194" width="120" height="60" as="geometry" />
        </mxCell>
        <mxCell id="pcC2OvUwN1UCfyMrfkFr-37" value="服务器" style="whiteSpace=wrap;html=1;fillColor=#4D4D4D;fontSize=14;strokeColor=#001DBC;verticalAlign=top;fontColor=#ffffff;rounded=1;" vertex="1" parent="1">
          <mxGeometry x="2244" y="261" width="150" height="772" as="geometry" />
        </mxCell>
        <mxCell id="pcC2OvUwN1UCfyMrfkFr-38" value="&lt;span style=&quot;text-wrap: nowrap;&quot;&gt;客户端&lt;/span&gt;" style="whiteSpace=wrap;html=1;fillColor=#4D4D4D;fontSize=14;strokeColor=#B20000;verticalAlign=top;fontColor=#ffffff;fillStyle=auto;rounded=1;" vertex="1" parent="1">
          <mxGeometry x="1784" y="265" width="148" height="760" as="geometry" />
        </mxCell>
        <mxCell id="pcC2OvUwN1UCfyMrfkFr-39" value="" style="verticalLabelPosition=bottom;aspect=fixed;html=1;verticalAlign=top;strokeColor=none;shape=mxgraph.citrix.xenapp_server;fillColor=#66B2FF;gradientColor=#0066CC;fontSize=14;" vertex="1" parent="1">
          <mxGeometry x="2283.75" y="297" width="76" height="89" as="geometry" />
        </mxCell>
        <mxCell id="pcC2OvUwN1UCfyMrfkFr-40" value="&lt;font style=&quot;font-size: 16px;&quot;&gt;男人&lt;/font&gt;" style="text;html=1;align=center;verticalAlign=middle;resizable=0;points=[];autosize=1;strokeColor=none;fillColor=none;fontStyle=1" vertex="1" parent="1">
          <mxGeometry x="1829" y="227" width="60" height="30" as="geometry" />
        </mxCell>
        <mxCell id="pcC2OvUwN1UCfyMrfkFr-41" value="女人" style="text;html=1;align=center;verticalAlign=middle;resizable=0;points=[];autosize=1;strokeColor=none;fillColor=none;fontSize=16;fontStyle=1" vertex="1" parent="1">
          <mxGeometry x="2289" y="223" width="60" height="30" as="geometry" />
        </mxCell>
        <mxCell id="pcC2OvUwN1UCfyMrfkFr-42" value="" style="verticalLabelPosition=bottom;aspect=fixed;html=1;verticalAlign=top;strokeColor=none;shape=mxgraph.citrix.desktop;fillColor=#66B2FF;gradientColor=#0066CC;fontSize=14;" vertex="1" parent="1">
          <mxGeometry x="1814.5" y="297" width="89" height="98" as="geometry" />
        </mxCell>
        <mxCell id="pcC2OvUwN1UCfyMrfkFr-43" value="" style="verticalLabelPosition=bottom;sketch=0;aspect=fixed;html=1;verticalAlign=top;strokeColor=none;align=center;outlineConnect=0;shape=mxgraph.citrix.cloud;" vertex="1" parent="1">
          <mxGeometry x="2009.73" y="276" width="168.55" height="110" as="geometry" />
        </mxCell>
        <mxCell id="pcC2OvUwN1UCfyMrfkFr-44" value="" style="shape=doubleArrow;whiteSpace=wrap;html=1;fillColor=#eef202;" vertex="1" parent="1">
          <mxGeometry x="1934.5" y="316" width="309" height="36" as="geometry" />
        </mxCell>
        <mxCell id="pcC2OvUwN1UCfyMrfkFr-45" value="TCP连接" style="text;html=1;align=center;verticalAlign=middle;resizable=0;points=[];autosize=1;strokeColor=none;fillColor=none;" vertex="1" parent="1">
          <mxGeometry x="2064.01" y="289" width="70" height="30" as="geometry" />
        </mxCell>
        <mxCell id="pcC2OvUwN1UCfyMrfkFr-46" value="互联网" style="text;html=1;align=center;verticalAlign=middle;resizable=0;points=[];autosize=1;strokeColor=none;fillColor=none;" vertex="1" parent="1">
          <mxGeometry x="2069.01" y="339" width="60" height="30" as="geometry" />
        </mxCell>
        <mxCell id="pcC2OvUwN1UCfyMrfkFr-51" value="" style="shape=singleArrow;direction=east;whiteSpace=wrap;html=1;rotation=10;fillColor=#b1ddf0;strokeColor=#10739e;sketch=1;curveFitting=1;jiggle=2;shadow=1;" vertex="1" parent="1">
          <mxGeometry x="1957.7" y="468.62" width="275.3" height="30" as="geometry" />
        </mxCell>
        <mxCell id="pcC2OvUwN1UCfyMrfkFr-52" value="你太丑了，我要和你分手" style="text;html=1;align=center;verticalAlign=middle;resizable=0;points=[];autosize=1;strokeColor=none;fillColor=none;fontSize=15;rotation=10;" vertex="1" parent="1">
          <mxGeometry x="1977.1200000000001" y="486" width="183" height="30" as="geometry" />
        </mxCell>
        <mxCell id="pcC2OvUwN1UCfyMrfkFr-53" value="FIN=1, seq = x" style="text;html=1;align=center;verticalAlign=middle;resizable=0;points=[];autosize=1;strokeColor=none;fillColor=none;fontSize=16;rotation=10;" vertex="1" parent="1">
          <mxGeometry x="2022.1200000000001" y="449" width="123" height="31" as="geometry" />
        </mxCell>
        <mxCell id="pcC2OvUwN1UCfyMrfkFr-54" value="FIN=1，ack = z+1,&amp;nbsp; seq = h" style="text;html=1;align=center;verticalAlign=middle;resizable=0;points=[];autosize=1;strokeColor=none;fillColor=none;fontSize=16;rotation=10;" vertex="1" parent="1">
          <mxGeometry x="1977.12" y="826" width="214" height="31" as="geometry" />
        </mxCell>
        <mxCell id="pcC2OvUwN1UCfyMrfkFr-55" value="" style="shape=singleArrow;direction=east;whiteSpace=wrap;html=1;rotation=-195;fillColor=#b1ddf0;strokeColor=#10739e;sketch=1;curveFitting=1;jiggle=2;shadow=1;" vertex="1" parent="1">
          <mxGeometry x="1942.3000000000002" y="582" width="275.3" height="30" as="geometry" />
        </mxCell>
        <mxCell id="pcC2OvUwN1UCfyMrfkFr-56" value="" style="shape=singleArrow;direction=east;whiteSpace=wrap;html=1;rotation=10;fillColor=#b1ddf0;strokeColor=#10739e;sketch=1;curveFitting=1;jiggle=2;shadow=1;" vertex="1" parent="1">
          <mxGeometry x="1958.12" y="853" width="275.3" height="30" as="geometry" />
        </mxCell>
        <mxCell id="pcC2OvUwN1UCfyMrfkFr-57" value="FIN=1, ack = x+1, seq = y" style="text;html=1;align=center;verticalAlign=middle;resizable=0;points=[];autosize=1;strokeColor=none;fillColor=none;fontSize=16;rotation=-15;" vertex="1" parent="1">
          <mxGeometry x="1993.5" y="556" width="201" height="31" as="geometry" />
        </mxCell>
        <mxCell id="pcC2OvUwN1UCfyMrfkFr-58" value="好，臭男人，等我把我的东西收拾完" style="text;html=1;align=center;verticalAlign=middle;resizable=0;points=[];autosize=1;strokeColor=none;fillColor=none;fontSize=16;rotation=-15;" vertex="1" parent="1">
          <mxGeometry x="1958.77" y="609" width="274" height="31" as="geometry" />
        </mxCell>
        <mxCell id="pcC2OvUwN1UCfyMrfkFr-59" value="好，拜拜" style="text;html=1;align=center;verticalAlign=middle;resizable=0;points=[];autosize=1;strokeColor=none;fillColor=none;fontSize=15;rotation=10;" vertex="1" parent="1">
          <mxGeometry x="2027" y="873" width="78" height="30" as="geometry" />
        </mxCell>
        <mxCell id="pcC2OvUwN1UCfyMrfkFr-61" value="数据停止传输" style="text;html=1;align=center;verticalAlign=middle;resizable=0;points=[];autosize=1;strokeColor=#666666;fillColor=#f5f5f5;fontSize=17;gradientColor=#b3b3b3;" vertex="1" parent="1">
          <mxGeometry x="2019.95" y="933" width="120" height="32" as="geometry" />
        </mxCell>
        <mxCell id="pcC2OvUwN1UCfyMrfkFr-62" value="从此是路人" style="text;html=1;align=center;verticalAlign=middle;resizable=0;points=[];autosize=1;strokeColor=none;fillColor=none;fontSize=16;" vertex="1" parent="1">
          <mxGeometry x="2036" y="1005" width="98" height="31" as="geometry" />
        </mxCell>
        <mxCell id="pcC2OvUwN1UCfyMrfkFr-63" value="四次挥手" style="rounded=1;whiteSpace=wrap;html=1;sketch=1;hachureGap=4;jiggle=2;curveFitting=1;fontFamily=Architects Daughter;fontSource=https%3A%2F%2Ffonts.googleapis.com%2Fcss%3Ffamily%3DArchitects%2BDaughter;fontSize=17;" vertex="1" parent="1">
          <mxGeometry x="2029" y="189" width="120" height="60" as="geometry" />
        </mxCell>
        <mxCell id="pcC2OvUwN1UCfyMrfkFr-64" value="臭男人，我的东西收拾完了，咱们分手吧" style="text;html=1;align=center;verticalAlign=middle;resizable=0;points=[];autosize=1;strokeColor=none;fillColor=none;fontSize=16;rotation=-15;" vertex="1" parent="1">
          <mxGeometry x="1942.77" y="727" width="306" height="31" as="geometry" />
        </mxCell>
        <mxCell id="pcC2OvUwN1UCfyMrfkFr-65" value="FIN=1, ack = x+1, seq = z" style="text;html=1;align=center;verticalAlign=middle;resizable=0;points=[];autosize=1;strokeColor=none;fillColor=none;fontSize=16;rotation=-15;" vertex="1" parent="1">
          <mxGeometry x="1993.5" y="670" width="201" height="31" as="geometry" />
        </mxCell>
        <mxCell id="pcC2OvUwN1UCfyMrfkFr-95" style="edgeStyle=orthogonalEdgeStyle;rounded=0;sketch=1;hachureGap=4;jiggle=2;curveFitting=1;orthogonalLoop=1;jettySize=auto;html=1;exitX=1;exitY=0.5;exitDx=0;exitDy=0;exitPerimeter=0;fontFamily=Architects Daughter;fontSource=https%3A%2F%2Ffonts.googleapis.com%2Fcss%3Ffamily%3DArchitects%2BDaughter;" edge="1" parent="1" target="pcC2OvUwN1UCfyMrfkFr-38">
          <mxGeometry relative="1" as="geometry">
            <mxPoint x="1680" y="944" as="targetPoint" />
            <mxPoint x="1946.4603100113097" y="751.6264415583619" as="sourcePoint" />
            <Array as="points">
              <mxPoint x="1637" y="752" />
              <mxPoint x="1637" y="944" />
            </Array>
          </mxGeometry>
        </mxCell>
        <mxCell id="pcC2OvUwN1UCfyMrfkFr-67" value="" style="shape=singleArrow;direction=east;whiteSpace=wrap;html=1;rotation=-195;fillColor=#b1ddf0;strokeColor=#10739e;sketch=1;curveFitting=1;jiggle=2;shadow=1;" vertex="1" parent="1">
          <mxGeometry x="1942.77" y="701" width="275.3" height="30" as="geometry" />
        </mxCell>
        <mxCell id="pcC2OvUwN1UCfyMrfkFr-69" value="" style="html=1;shadow=0;dashed=0;align=center;verticalAlign=middle;shape=mxgraph.arrows2.stylisedArrow;dy=0.6;dx=40;notch=15;feather=0.4;sketch=1;hachureGap=4;jiggle=2;curveFitting=1;fontFamily=Architects Daughter;fontSource=https%3A%2F%2Ffonts.googleapis.com%2Fcss%3Ffamily%3DArchitects%2BDaughter;direction=west;" vertex="1" parent="1">
          <mxGeometry x="1952" y="971" width="117" height="37" as="geometry" />
        </mxCell>
        <mxCell id="pcC2OvUwN1UCfyMrfkFr-72" value="" style="html=1;shadow=0;dashed=0;align=center;verticalAlign=middle;shape=mxgraph.arrows2.stylisedArrow;dy=0.6;dx=40;notch=15;feather=0.4;sketch=1;hachureGap=4;jiggle=2;curveFitting=1;fontFamily=Architects Daughter;fontSource=https%3A%2F%2Ffonts.googleapis.com%2Fcss%3Ffamily%3DArchitects%2BDaughter;direction=east;" vertex="1" parent="1">
          <mxGeometry x="2111" y="971" width="117" height="37" as="geometry" />
        </mxCell>
        <mxCell id="pcC2OvUwN1UCfyMrfkFr-82" value="SYN_SENT" style="dashed=0;html=1;rounded=1;fillColor=#ffcd28;strokeColor=#d79b00;fontSize=12;align=center;fontStyle=1;strokeWidth=2;arcSize=0;gradientColor=#ffa500;" vertex="1" parent="1">
          <mxGeometry x="340" y="494.62" width="130" height="25" as="geometry" />
        </mxCell>
        <mxCell id="pcC2OvUwN1UCfyMrfkFr-83" value="SYN_RCVD" style="dashed=0;html=1;rounded=1;fillColor=#f8cecc;strokeColor=#b85450;fontSize=12;align=center;fontStyle=1;strokeWidth=2;arcSize=0;gradientColor=#ea6b66;" vertex="1" parent="1">
          <mxGeometry x="799" y="611" width="130" height="25" as="geometry" />
        </mxCell>
        <mxCell id="pcC2OvUwN1UCfyMrfkFr-84" value="ESTABLISHED" style="dashed=0;html=1;rounded=1;fillColor=#e6d0de;strokeColor=#996185;fontSize=12;align=center;fontStyle=1;strokeWidth=2;arcSize=0;gradientColor=#d5739d;" vertex="1" parent="1">
          <mxGeometry x="335" y="758" width="130" height="25" as="geometry" />
        </mxCell>
        <mxCell id="pcC2OvUwN1UCfyMrfkFr-85" value="ESTABLISHED" style="dashed=0;html=1;rounded=1;fillColor=#e6d0de;strokeColor=#996185;fontSize=12;align=center;fontStyle=1;strokeWidth=2;arcSize=0;gradientColor=#d5739d;" vertex="1" parent="1">
          <mxGeometry x="797" y="808" width="130" height="25" as="geometry" />
        </mxCell>
        <mxCell id="pcC2OvUwN1UCfyMrfkFr-86" value="ESTABLISHED" style="dashed=0;html=1;rounded=1;fillColor=#e6d0de;strokeColor=#996185;fontSize=12;align=center;fontStyle=1;strokeWidth=2;arcSize=0;gradientColor=#d5739d;" vertex="1" parent="1">
          <mxGeometry x="1793" y="404" width="130" height="25" as="geometry" />
        </mxCell>
        <mxCell id="pcC2OvUwN1UCfyMrfkFr-87" value="ESTABLISHED" style="dashed=0;html=1;rounded=1;fillColor=#e6d0de;strokeColor=#996185;fontSize=12;align=center;fontStyle=1;strokeWidth=2;arcSize=0;gradientColor=#d5739d;" vertex="1" parent="1">
          <mxGeometry x="2256.75" y="404" width="130" height="25" as="geometry" />
        </mxCell>
        <mxCell id="pcC2OvUwN1UCfyMrfkFr-88" value="FIN_WAIT1" style="dashed=0;html=1;rounded=1;fillColor=#ffcd28;strokeColor=#d79b00;fontSize=12;align=center;fontStyle=1;strokeWidth=2;arcSize=0;gradientColor=#ffa500;" vertex="1" parent="1">
          <mxGeometry x="1793" y="445.5" width="130" height="25" as="geometry" />
        </mxCell>
        <mxCell id="pcC2OvUwN1UCfyMrfkFr-89" value="CLOSE_WAIT" style="dashed=0;html=1;rounded=1;fillColor=#ffcccc;strokeColor=#36393d;fontSize=12;align=center;fontStyle=1;strokeWidth=2;arcSize=0;" vertex="1" parent="1">
          <mxGeometry x="2254" y="550" width="130" height="25" as="geometry" />
        </mxCell>
        <mxCell id="pcC2OvUwN1UCfyMrfkFr-90" value="LAST_ACK" style="dashed=0;html=1;rounded=1;fillColor=#d0cee2;strokeColor=#56517e;fontSize=12;align=center;fontStyle=1;strokeWidth=2;arcSize=0;" vertex="1" parent="1">
          <mxGeometry x="2254" y="676" width="130" height="25" as="geometry" />
        </mxCell>
        <mxCell id="pcC2OvUwN1UCfyMrfkFr-91" value="CLOSED" style="dashed=0;html=1;rounded=1;fillColor=#f5f5f5;strokeColor=#666666;fontSize=12;align=center;fontStyle=1;strokeWidth=2;arcSize=0;gradientColor=#b3b3b3;" vertex="1" parent="1">
          <mxGeometry x="2256.75" y="883" width="130" height="25" as="geometry" />
        </mxCell>
        <mxCell id="pcC2OvUwN1UCfyMrfkFr-92" value="FIN_WAIT2" style="dashed=0;html=1;rounded=1;fillColor=#b0e3e6;strokeColor=#0e8088;fontSize=12;align=center;fontStyle=1;strokeWidth=2;arcSize=0;" vertex="1" parent="1">
          <mxGeometry x="1793" y="676" width="130" height="25" as="geometry" />
        </mxCell>
        <mxCell id="pcC2OvUwN1UCfyMrfkFr-93" value="CLOSED" style="dashed=0;html=1;rounded=1;fillColor=#f5f5f5;strokeColor=#666666;fontSize=12;align=center;fontStyle=1;strokeWidth=2;arcSize=0;gradientColor=#b3b3b3;" vertex="1" parent="1">
          <mxGeometry x="1793" y="933" width="130" height="25" as="geometry" />
        </mxCell>
        <mxCell id="pcC2OvUwN1UCfyMrfkFr-94" value="TIEM_WAIT" style="dashed=0;html=1;rounded=1;fillColor=#ffe6cc;strokeColor=#d79b00;fontSize=12;align=center;fontStyle=1;strokeWidth=2;arcSize=0;" vertex="1" parent="1">
          <mxGeometry x="1790" y="864" width="130" height="25" as="geometry" />
        </mxCell>
        <mxCell id="pcC2OvUwN1UCfyMrfkFr-99" value="等待2msl" style="text;html=1;align=center;verticalAlign=middle;resizable=0;points=[];autosize=1;strokeColor=none;fillColor=none;fontFamily=Architects Daughter;fontSource=https%3A%2F%2Ffonts.googleapis.com%2Fcss%3Ffamily%3DArchitects%2BDaughter;fontSize=17;" vertex="1" parent="1">
          <mxGeometry x="1646" y="769" width="86" height="32" as="geometry" />
        </mxCell>
      </root>
    </mxGraphModel>
  </diagram>
</mxfile>
